<svg t="1619490479321" class="icon" viewBox="0 0 1024 1024" version="1.1" xmlns="http://www.w3.org/2000/svg" p-id="2043"
     width="200" height="200">
    <path d="M510.08 849.6l8.31999999-4.544 8.19200001-5.248 7.936-5.696 332.864-255.168A83.264 83.264 0 0 0 896.00000001 512c-0.64-26.944-10.24-47.616-28.80000001-61.888l-354.688-269.44-7.04-4.224c-24.32-13.44-56.32000001-18.56-57.472 44.16l0.256 154.24-255.744-194.176-7.04-4.224c-24.32-13.44-56.32000001-18.56-57.472 44.16l0.832 549.696c0.128 89.088 30.72 94.272 61.248 79.296l8.32-4.54400001 8.192-5.24799999 7.936-5.696 234.24-179.584L448.768 770.304c0.192 89.088 30.72 94.272 61.312 79.296z"
          fill="" p-id="2044"></path>
</svg>