<svg t="1619494121072" class="icon" viewBox="0 0 1024 1024" version="1.1" xmlns="http://www.w3.org/2000/svg" p-id="816"
     width="200" height="200">
    <path d="M120.6875 890.75c-23.25 0-42.1875-18.9375-42.1875-42.1875s18.9375-42.1875 42.1875-42.1875H897.3125c23.25 0 42.1875 18.9375 42.1875 42.1875s-18.9375 42.1875-42.1875 42.1875H120.6875z m0-336.5625c-23.25 0-42.1875-18.9375-42.1875-42.1875s18.9375-42.1875 42.1875-42.1875H897.3125c23.25 0 42.1875 18.9375 42.1875 42.1875s-18.9375 42.1875-42.1875 42.1875H120.6875z m0-336.5625c-23.25 0-42.1875-18.9375-42.1875-42.1875s18.9375-42.1875 42.1875-42.1875H897.3125c23.25 0 42.1875 18.9375 42.1875 42.1875s-18.9375 42.1875-42.1875 42.1875H120.6875z"
          fill="" p-id="817"></path>
</svg>