<svg t="1619506978563" class="icon" viewBox="0 0 1024 1024" version="1.1" xmlns="http://www.w3.org/2000/svg" p-id="908" width="200" height="200"><path d="M756.07305482 372.90590815c-9.00513185-12.01493333-19.07825778-23.02255408-30.06160593-32.86509037h0.18204444c-22.48855703-22.14874075-56.61582222-22.14874075-79.10437925 0-18.18017185 16.03204741-21.03220148 45.15915852-6.38369186 65.05054814 1.89326222 2.57289482 4.02925037 4.9152 6.38369186 6.99050667 55.93618963 50.98458075 63.52137482 141.95825778 16.94226962 203.18587259-5.12151703 6.73564445-10.78916741 12.93729185-16.94226962 18.54426074-18.19230815 16.00777482-21.08074667 45.13488592-6.45650963 65.03841186a44.68584297 44.68584297 0 0 0 6.45650963 7.06332444c22.48855703 22.14874075 56.61582222 22.14874075 79.10437925 0 92.26012445-82.93944889 105.64645925-232.02171259 29.87956149-333.00783407zM462.38682075 96.17408L225.14650075 279.04379259H72.32625778c-39.05460148-1.71121778-71.98037333 31.54223408-73.54595556 74.28626963-0.03640889 1.11653925-0.06068148 2.24521482-0.06068147 3.36175408v310.6163674c-0.13349925 42.78044445 31.43300741 77.57520592 70.51188147 77.72084148 1.10440297 0 2.22094222-0.02427259 3.32534519-0.07281777H220.12207408l237.24032 182.86971259c36.89434075 27.75570963 68.53366518 11.10471111 68.53366517-27.69502815V123.86910815c-0.23058963-38.79973925-32.05195852-55.45073778-63.5092385-27.69502815z" p-id="909"></path><path d="M943.10551703 266.20359111c-18.79912297-26.14158222-40.37745778-49.73454222-64.26168888-70.29342814h0.18204444c-22.46428445-22.13660445-56.57941333-22.13660445-79.04369777 0-18.19230815 16.00777482-21.08074667 45.13488592-6.45650964 65.03841185a44.68584297 44.68584297 0 0 0 6.45650964 7.06332443c130.05255111 111.49615408 152.90519703 317.27919408 51.03312593 459.63794964-14.89123555 20.80161185-32.02768592 39.56432592-51.03312593 55.85123556-18.18017185 16.03204741-21.03220148 45.15915852-6.38369185 65.05054814 1.89326222 2.57289482 4.02925037 4.9152 6.38369185 6.99050666 22.46428445 22.13660445 56.57941333 22.13660445 79.04369777 0 166.37648592-143.39034075 195.06669037-407.23342222 64.07964444-589.33854814z" p-id="910"></path></svg>